
<svg width="300px" height="300px" viewBox="0 0 300 300" version="1.1" xmlns="http://www.w3.org/2000/svg" xmlns:xlink="http://www.w3.org/1999/xlink">
        <path fill="#000000" d="M0.0135155316,147.965485 C1.06500704,224.379303 63.336361,286 140,286 C217.319865,286 280,223.319865 280,146 C280,68.680135 217.319865,6 140,6 C100.810941,6 65.3826852,22.1019108 39.9702434,48.0507208 C67.3665507,18.4969491 106.523178,0 150,0 C232.842712,0 300,67.1572875 300,150 C300,232.842712 232.842712,300 150,300 C67.1572875,300 0,232.842712 0,150 C0,149.320766 0.00451464904,148.642585 0.0135155767,147.965488 Z M257,217 L24,217 L77.4594595,125 L137.459459,125 L106.081081,179 L174.918919,179 L111,69 L171,69 L257,217 Z"></path>
</svg>